<?xml version="1.0" encoding="UTF-8" standalone="no"?>
<!DOCTYPE svg PUBLIC "-//W3C//DTD SVG 1.1//EN"
 "http://www.w3.org/Graphics/SVG/1.1/DTD/svg11.dtd">
<!-- Generated by graphviz version 2.40.1 (20161225.0304)
 -->
<!-- Title: G Pages: 1 -->
<svg width="662pt" height="478pt"
 viewBox="0.00 0.00 662.00 478.00" xmlns="http://www.w3.org/2000/svg" xmlns:xlink="http://www.w3.org/1999/xlink">
<g id="graph0" class="graph" transform="scale(1 1) rotate(0) translate(4 474)">
<title>G</title><style>.edge>path:hover{stroke-width:8}</style>
<polygon fill="#ffffff" stroke="transparent" points="-4,4 -4,-474 658,-474 658,4 -4,4"/>
<!-- PIL -->
<g id="node1" class="node">
<title>PIL</title><style>.edge>path:hover{stroke-width:8}</style>
<polygon fill="#cc3333" stroke="#000000" points="54,-182 51,-186 30,-186 27,-182 0,-182 0,-146 54,-146 54,-182"/>
<text text-anchor="middle" x="27" y="-161.5" font-family="Helvetica,sans-Serif" font-size="10.00" fill="#ffffff">PIL</text>
</g>
<!-- alphapose -->
<g id="node2" class="node">
<title>alphapose</title><style>.edge>path:hover{stroke-width:8}</style>
<polygon fill="#f96e06" stroke="#000000" points="376.5,-36 373.5,-40 352.5,-40 349.5,-36 315.5,-36 315.5,0 376.5,0 376.5,-36"/>
<text text-anchor="middle" x="346" y="-15.5" font-family="Helvetica,sans-Serif" font-size="10.00" fill="#000000">alphapose</text>
</g>
<!-- PIL&#45;&gt;alphapose -->
<g id="edge1" class="edge">
<title>PIL&#45;&gt;alphapose</title><style>.edge>path:hover{stroke-width:8}</style>
<path fill="none" stroke="#000000" d="M54.3986,-150.7074C58.8684,-148.9084 63.5073,-147.2536 68,-146 128.0153,-129.2533 331.3528,-170.0619 346,-109.5"/>
<path fill="none" stroke="#000000" d="M346,-109.5C351.0258,-88.7196 350.7672,-64.4993 349.3915,-46.1994"/>
<polygon fill="#cc3333" stroke="#000000" points="352.8718,-45.8231 348.4838,-36.1796 345.9003,-46.4546 352.8718,-45.8231"/>
</g>
<!-- cv2 -->
<g id="node3" class="node">
<title>cv2</title><style>.edge>path:hover{stroke-width:8}</style>
<polygon fill="#f9d606" stroke="#000000" points="109,-254 106,-258 85,-258 82,-254 55,-254 55,-218 109,-218 109,-254"/>
<text text-anchor="middle" x="82" y="-233.5" font-family="Helvetica,sans-Serif" font-size="10.00" fill="#000000">cv2</text>
</g>
<!-- cv2&#45;&gt;alphapose -->
<g id="edge2" class="edge">
<title>cv2&#45;&gt;alphapose</title><style>.edge>path:hover{stroke-width:8}</style>
<path fill="none" stroke="#000000" d="M75.2928,-217.7293C70.4374,-200.9138 67.0504,-176.7142 82,-164"/>
</g>
<!-- easydict -->
<g id="node4" class="node">
<title>easydict</title><style>.edge>path:hover{stroke-width:8}</style>
<polygon fill="#a9db2f" stroke="#000000" points="510,-182 507,-186 486,-186 483,-182 456,-182 456,-146 510,-146 510,-182"/>
<text text-anchor="middle" x="483" y="-161.5" font-family="Helvetica,sans-Serif" font-size="10.00" fill="#000000">easydict</text>
</g>
<!-- easydict&#45;&gt;alphapose -->
<g id="edge3" class="edge">
<title>easydict&#45;&gt;alphapose</title><style>.edge>path:hover{stroke-width:8}</style>
<path fill="none" stroke="#000000" d="M455.6382,-149.9061C452.7434,-148.5392 449.8256,-147.2121 447,-146 403.1351,-127.184 334.7797,-155.8927 346,-109.5"/>
</g>
<!-- halpecocotools -->
<g id="node5" class="node">
<title>halpecocotools</title><style>.edge>path:hover{stroke-width:8}</style>
<polygon fill="#65ce3b" stroke="#000000" points="192,-182 189,-186 168,-186 165,-182 110,-182 110,-146 192,-146 192,-182"/>
<text text-anchor="middle" x="151" y="-161.5" font-family="Helvetica,sans-Serif" font-size="10.00" fill="#000000">halpecocotools</text>
</g>
<!-- halpecocotools&#45;&gt;alphapose -->
<g id="edge4" class="edge">
<title>halpecocotools&#45;&gt;alphapose</title><style>.edge>path:hover{stroke-width:8}</style>
<path fill="none" stroke="#000000" d="M192.0597,-150.2581C196.7483,-148.7794 201.4693,-147.3306 206,-146 267.6963,-127.8802 330.884,-172.0002 346,-109.5"/>
</g>
<!-- matplotlib -->
<g id="node6" class="node">
<title>matplotlib</title><style>.edge>path:hover{stroke-width:8}</style>
<polygon fill="#0bdf2a" stroke="#000000" points="207.5,-326 204.5,-330 183.5,-330 180.5,-326 148.5,-326 148.5,-290 207.5,-290 207.5,-326"/>
<text text-anchor="middle" x="178" y="-305.5" font-family="Helvetica,sans-Serif" font-size="10.00" fill="#000000">matplotlib</text>
</g>
<!-- matplotlib&#45;&gt;alphapose -->
<g id="edge5" class="edge">
<title>matplotlib&#45;&gt;alphapose</title><style>.edge>path:hover{stroke-width:8}</style>
<path fill="none" stroke="#000000" d="M220,-236C230.1203,-196.3908 211.8883,-176.5984 239,-146 272.3222,-108.3925 330.9373,-157.4354 346,-109.5"/>
</g>
<!-- matplotlib&#45;&gt;halpecocotools -->
<g id="edge6" class="edge">
<title>matplotlib&#45;&gt;halpecocotools</title><style>.edge>path:hover{stroke-width:8}</style>
<path fill="none" stroke="#000000" d="M192.5421,-289.7271C202.5469,-275.8849 214.913,-255.9096 220,-236"/>
<path fill="none" stroke="#000000" d="M220,-236C224.8906,-216.8588 211.7122,-200.4764 195.6012,-188.1963"/>
<polygon fill="#0bdf2a" stroke="#000000" points="197.1858,-185.0327 186.989,-182.1557 193.1661,-190.7635 197.1858,-185.0327"/>
</g>
<!-- pycocotools -->
<g id="node8" class="node">
<title>pycocotools</title><style>.edge>path:hover{stroke-width:8}</style>
<polygon fill="#10f9f9" stroke="#000000" points="317.5,-182 314.5,-186 293.5,-186 290.5,-182 248.5,-182 248.5,-146 317.5,-146 317.5,-182"/>
<text text-anchor="middle" x="283" y="-161.5" font-family="Helvetica,sans-Serif" font-size="10.00" fill="#000000">pycocotools</text>
</g>
<!-- matplotlib&#45;&gt;pycocotools -->
<g id="edge7" class="edge">
<title>matplotlib&#45;&gt;pycocotools</title><style>.edge>path:hover{stroke-width:8}</style>
<path fill="none" stroke="#000000" d="M220,-236C224.6745,-217.7047 237.6219,-201.4593 250.5724,-189.0513"/>
<polygon fill="#0bdf2a" stroke="#000000" points="253.0723,-191.5094 258.1354,-182.2026 248.3736,-186.3207 253.0723,-191.5094"/>
</g>
<!-- numpy -->
<g id="node7" class="node">
<title>numpy</title><style>.edge>path:hover{stroke-width:8}</style>
<polygon fill="#06f991" stroke="#000000" points="301,-470 298,-474 277,-474 274,-470 247,-470 247,-434 301,-434 301,-470"/>
<text text-anchor="middle" x="274" y="-449.5" font-family="Helvetica,sans-Serif" font-size="10.00" fill="#000000">numpy</text>
</g>
<!-- numpy&#45;&gt;alphapose -->
<g id="edge8" class="edge">
<title>numpy&#45;&gt;alphapose</title><style>.edge>path:hover{stroke-width:8}</style>
<path fill="none" stroke="#000000" d="M263.9729,-433.8263C256.1041,-419.372 245.0116,-398.5642 236,-380"/>
<path fill="none" stroke="#000000" d="M236,-380C214.4528,-335.6121 178.7766,-355.1957 139,-326 129.6227,-319.1171 128.1117,-316.3372 120,-308"/>
<path fill="none" stroke="#000000" d="M120,-308C91.6078,-278.8185 64.4463,-290.2962 46,-254 38.751,-239.7363 41.3635,-233.3135 46,-218 54.3587,-190.3932 60.0274,-182.687 82,-164"/>
<path fill="none" stroke="#000000" d="M82,-164C90.446,-156.0016 90.5417,-151.0924 101,-146 150.4901,-121.9019 329.9608,-162.1567 346,-109.5"/>
</g>
<!-- numpy&#45;&gt;cv2 -->
<g id="edge9" class="edge">
<title>numpy&#45;&gt;cv2</title><style>.edge>path:hover{stroke-width:8}</style>
<path fill="none" stroke="#000000" d="M120,-308C108.0957,-295.2334 98.8334,-278.028 92.4345,-263.6376"/>
<polygon fill="#06f991" stroke="#000000" points="95.5724,-262.0709 88.4647,-254.214 89.1214,-264.7885 95.5724,-262.0709"/>
</g>
<!-- numpy&#45;&gt;halpecocotools -->
<g id="edge10" class="edge">
<title>numpy&#45;&gt;halpecocotools</title><style>.edge>path:hover{stroke-width:8}</style>
<path fill="none" stroke="#000000" d="M120,-308C104.537,-291.417 125.3704,-228.7141 139.6354,-191.7415"/>
<polygon fill="#06f991" stroke="#000000" points="143.0422,-192.6424 143.4491,-182.0553 136.5288,-190.0778 143.0422,-192.6424"/>
</g>
<!-- numpy&#45;&gt;matplotlib -->
<g id="edge11" class="edge">
<title>numpy&#45;&gt;matplotlib</title><style>.edge>path:hover{stroke-width:8}</style>
<path fill="none" stroke="#000000" d="M236,-380C228.0385,-363.0326 215.2733,-346.5644 203.7429,-333.67"/>
<polygon fill="#06f991" stroke="#000000" points="206.134,-331.1004 196.777,-326.1307 200.9925,-335.8508 206.134,-331.1004"/>
</g>
<!-- numpy&#45;&gt;pycocotools -->
<g id="edge12" class="edge">
<title>numpy&#45;&gt;pycocotools</title><style>.edge>path:hover{stroke-width:8}</style>
<path fill="none" stroke="#000000" d="M236,-380C206.1427,-316.3689 243.0627,-233.2287 266.4938,-191.0623"/>
<polygon fill="#06f991" stroke="#000000" points="269.6214,-192.6434 271.5439,-182.2244 263.5436,-189.1704 269.6214,-192.6434"/>
</g>
<!-- scipy -->
<g id="node9" class="node">
<title>scipy</title><style>.edge>path:hover{stroke-width:8}</style>
<polygon fill="#3185c4" stroke="#000000" points="318,-326 315,-330 294,-330 291,-326 264,-326 264,-290 318,-290 318,-326"/>
<text text-anchor="middle" x="291" y="-305.5" font-family="Helvetica,sans-Serif" font-size="10.00" fill="#ffffff">scipy</text>
</g>
<!-- numpy&#45;&gt;scipy -->
<g id="edge13" class="edge">
<title>numpy&#45;&gt;scipy</title><style>.edge>path:hover{stroke-width:8}</style>
<path fill="none" stroke="#000000" d="M236,-380C227.6927,-362.2956 240.4268,-344.8056 255.7239,-331.4976"/>
<polygon fill="#06f991" stroke="#000000" points="258.2697,-333.9411 263.8591,-324.9406 253.8768,-328.491 258.2697,-333.9411"/>
</g>
<!-- trackers -->
<g id="node13" class="node">
<title>trackers</title><style>.edge>path:hover{stroke-width:8}</style>
<polygon fill="#ac499d" stroke="#000000" points="356,-398 353,-402 332,-402 329,-398 302,-398 302,-362 356,-362 356,-398"/>
<text text-anchor="middle" x="329" y="-377.5" font-family="Helvetica,sans-Serif" font-size="10.00" fill="#ffffff">trackers</text>
</g>
<!-- numpy&#45;&gt;trackers -->
<g id="edge14" class="edge">
<title>numpy&#45;&gt;trackers</title><style>.edge>path:hover{stroke-width:8}</style>
<path fill="none" stroke="#000000" d="M287.8788,-433.8314C294.2136,-425.5386 301.8384,-415.557 308.7926,-406.4533"/>
<polygon fill="#06f991" stroke="#000000" points="311.6452,-408.4847 314.9343,-398.4133 306.0825,-404.2353 311.6452,-408.4847"/>
</g>
<!-- pycocotools&#45;&gt;alphapose -->
<g id="edge15" class="edge">
<title>pycocotools&#45;&gt;alphapose</title><style>.edge>path:hover{stroke-width:8}</style>
<path fill="none" stroke="#000000" d="M317.7965,-145.8834C330.323,-136.9767 342.2943,-124.822 346,-109.5"/>
</g>
<!-- scipy&#45;&gt;alphapose -->
<g id="edge16" class="edge">
<title>scipy&#45;&gt;alphapose</title><style>.edge>path:hover{stroke-width:8}</style>
<path fill="none" stroke="#000000" d="M312.7739,-289.8165C326.3874,-276.6015 342.0621,-257.3469 346,-236"/>
<path fill="none" stroke="#000000" d="M346,-236C351.8052,-204.531 350.1167,-195.7341 346,-164"/>
<path fill="none" stroke="#000000" d="M346,-164C342.8839,-139.9791 338.7387,-132.6082 346,-109.5"/>
</g>
<!-- torch -->
<g id="node10" class="node">
<title>torch</title><style>.edge>path:hover{stroke-width:8}</style>
<polygon fill="#0520c7" stroke="#000000" points="383,-470 380,-474 359,-474 356,-470 329,-470 329,-434 383,-434 383,-470"/>
<text text-anchor="middle" x="356" y="-449.5" font-family="Helvetica,sans-Serif" font-size="10.00" fill="#ffffff">torch</text>
</g>
<!-- torch&#45;&gt;alphapose -->
<g id="edge17" class="edge">
<title>torch&#45;&gt;alphapose</title><style>.edge>path:hover{stroke-width:8}</style>
<path fill="none" stroke="#000000" d="M360.6373,-433.8781C369.6028,-396.8581 388.0881,-309.8128 384,-236"/>
<path fill="none" stroke="#000000" d="M384,-236C382.5009,-199.8477 350.6548,-199.8827 346,-164"/>
</g>
<!-- torchvision -->
<g id="node11" class="node">
<title>torchvision</title><style>.edge>path:hover{stroke-width:8}</style>
<polygon fill="#4205db" stroke="#000000" points="438,-182 435,-186 414,-186 411,-182 374,-182 374,-146 438,-146 438,-182"/>
<text text-anchor="middle" x="406" y="-161.5" font-family="Helvetica,sans-Serif" font-size="10.00" fill="#ffffff">torchvision</text>
</g>
<!-- torch&#45;&gt;torchvision -->
<g id="edge18" class="edge">
<title>torch&#45;&gt;torchvision</title><style>.edge>path:hover{stroke-width:8}</style>
<path fill="none" stroke="#000000" d="M384,-236C383.1648,-220.9205 387.5654,-204.7855 392.6456,-191.6198"/>
<polygon fill="#0520c7" stroke="#000000" points="395.9569,-192.7735 396.5874,-182.1974 389.4992,-190.0719 395.9569,-192.7735"/>
</g>
<!-- torch&#45;&gt;trackers -->
<g id="edge19" class="edge">
<title>torch&#45;&gt;trackers</title><style>.edge>path:hover{stroke-width:8}</style>
<path fill="none" stroke="#000000" d="M349.1868,-433.8314C346.2356,-425.9617 342.7142,-416.5712 339.445,-407.8533"/>
<polygon fill="#0520c7" stroke="#000000" points="342.6934,-406.5476 335.905,-398.4133 336.1391,-409.0055 342.6934,-406.5476"/>
</g>
<!-- torchvision&#45;&gt;alphapose -->
<g id="edge20" class="edge">
<title>torchvision&#45;&gt;alphapose</title><style>.edge>path:hover{stroke-width:8}</style>
<path fill="none" stroke="#000000" d="M373.9549,-150.524C357.4793,-141.2694 341.6664,-127.4183 346,-109.5"/>
</g>
<!-- tqdm -->
<g id="node12" class="node">
<title>tqdm</title><style>.edge>path:hover{stroke-width:8}</style>
<polygon fill="#b710f9" stroke="#000000" points="582,-182 579,-186 558,-186 555,-182 528,-182 528,-146 582,-146 582,-182"/>
<text text-anchor="middle" x="555" y="-161.5" font-family="Helvetica,sans-Serif" font-size="10.00" fill="#ffffff">tqdm</text>
</g>
<!-- tqdm&#45;&gt;alphapose -->
<g id="edge21" class="edge">
<title>tqdm&#45;&gt;alphapose</title><style>.edge>path:hover{stroke-width:8}</style>
<path fill="none" stroke="#000000" d="M527.7972,-149.4968C524.8714,-148.2097 521.9029,-147.0131 519,-146 481.9036,-133.0531 336.7636,-147.6897 346,-109.5"/>
</g>
<!-- trackers&#45;&gt;alphapose -->
<g id="edge22" class="edge">
<title>trackers&#45;&gt;alphapose</title><style>.edge>path:hover{stroke-width:8}</style>
<path fill="none" stroke="#000000" d="M330.394,-361.7009C332.6585,-334.2394 337.7341,-280.8082 346,-236"/>
</g>
<!-- yaml -->
<g id="node14" class="node">
<title>yaml</title><style>.edge>path:hover{stroke-width:8}</style>
<polygon fill="#b6537e" stroke="#000000" points="654,-182 651,-186 630,-186 627,-182 600,-182 600,-146 654,-146 654,-182"/>
<text text-anchor="middle" x="627" y="-161.5" font-family="Helvetica,sans-Serif" font-size="10.00" fill="#ffffff">yaml</text>
</g>
<!-- yaml&#45;&gt;alphapose -->
<g id="edge23" class="edge">
<title>yaml&#45;&gt;alphapose</title><style>.edge>path:hover{stroke-width:8}</style>
<path fill="none" stroke="#000000" d="M599.857,-149.3166C596.9196,-148.0647 593.932,-146.9255 591,-146 538.5079,-129.4299 333.0601,-163.0028 346,-109.5"/>
</g>
</g>
</svg>
