<?xml version="1.0" encoding="UTF-8" standalone="no"?>
<!DOCTYPE svg PUBLIC "-//W3C//DTD SVG 1.1//EN"
 "http://www.w3.org/Graphics/SVG/1.1/DTD/svg11.dtd">
<!-- Generated by graphviz version 2.40.1 (20161225.0304)
 -->
<!-- Title: G Pages: 1 -->
<svg width="902pt" height="705pt"
 viewBox="0.00 0.00 902.22 705.23" xmlns="http://www.w3.org/2000/svg" xmlns:xlink="http://www.w3.org/1999/xlink">
<g id="graph0" class="graph" transform="scale(1 1) rotate(0) translate(4 701.2275)">
<title>G</title><style>.edge>path:hover{stroke-width:8}</style>
<polygon fill="#ffffff" stroke="transparent" points="-4,4 -4,-701.2275 898.2155,-701.2275 898.2155,4 -4,4"/>
<!-- alphapose -->
<g id="node1" class="node">
<title>alphapose</title><style>.edge>path:hover{stroke-width:8}</style>
<ellipse fill="#f31616" stroke="#000000" cx="219.2536" cy="-90" rx="35.8171" ry="18"/>
<text text-anchor="middle" x="219.2536" y="-87.5" font-family="Helvetica,sans-Serif" font-size="10.00" fill="#ffffff">alphapose</text>
</g>
<!-- alphapose_models -->
<g id="node2" class="node">
<title>alphapose_models</title><style>.edge>path:hover{stroke-width:8}</style>
<ellipse fill="#c24747" stroke="#000000" cx="206.2536" cy="-439.3833" rx="45.011" ry="21.4286"/>
<text text-anchor="middle" x="206.2536" y="-442.3833" font-family="Helvetica,sans-Serif" font-size="10.00" fill="#ffffff">alphapose.</text>
<text text-anchor="middle" x="206.2536" y="-431.3833" font-family="Helvetica,sans-Serif" font-size="10.00" fill="#ffffff">models</text>
</g>
<!-- alphapose_models_builder -->
<g id="node3" class="node">
<title>alphapose_models_builder</title><style>.edge>path:hover{stroke-width:8}</style>
<ellipse fill="#b03a3a" stroke="#000000" cx="60.2536" cy="-439.3833" rx="45.011" ry="28.9828"/>
<text text-anchor="middle" x="60.2536" y="-447.8833" font-family="Helvetica,sans-Serif" font-size="10.00" fill="#ffffff">alphapose.</text>
<text text-anchor="middle" x="60.2536" y="-436.8833" font-family="Helvetica,sans-Serif" font-size="10.00" fill="#ffffff">models.</text>
<text text-anchor="middle" x="60.2536" y="-425.8833" font-family="Helvetica,sans-Serif" font-size="10.00" fill="#ffffff">builder</text>
</g>
<!-- alphapose_utils -->
<g id="node4" class="node">
<title>alphapose_utils</title><style>.edge>path:hover{stroke-width:8}</style>
<ellipse fill="#f31616" stroke="#000000" cx="97.2536" cy="-604.0143" rx="45.011" ry="21.4286"/>
<text text-anchor="middle" x="97.2536" y="-607.0143" font-family="Helvetica,sans-Serif" font-size="10.00" fill="#ffffff">alphapose.</text>
<text text-anchor="middle" x="97.2536" y="-596.0143" font-family="Helvetica,sans-Serif" font-size="10.00" fill="#ffffff">utils</text>
</g>
<!-- alphapose_models_builder&#45;&gt;alphapose_utils -->
<g id="edge6" class="edge">
<title>alphapose_models_builder&#45;&gt;alphapose_utils</title><style>.edge>path:hover{stroke-width:8}</style>
<path fill="none" stroke="#000000" d="M96.0833,-457.1189C103.7182,-460.8618 111.743,-464.7687 119.2536,-468.3747 173.2419,-494.2956 225.5098,-467.8058 241.2536,-525.5879"/>
<path fill="none" stroke="#000000" d="M241.2536,-525.5879C252.9072,-568.3587 197.1005,-588.1145 151.5926,-597.029"/>
<polygon fill="#b03a3a" stroke="#000000" points="150.6888,-593.6359 141.4776,-598.8708 151.9428,-600.5227 150.6888,-593.6359"/>
</g>
<!-- torch -->
<g id="node14" class="node">
<title>torch</title><style>.edge>path:hover{stroke-width:8}</style>
<ellipse fill="#0691f9" stroke="#000000" cx="493.2536" cy="-679.2275" rx="27" ry="18"/>
<text text-anchor="middle" x="493.2536" y="-676.7275" font-family="Helvetica,sans-Serif" font-size="10.00" fill="#ffffff">torch</text>
</g>
<!-- alphapose_models_builder&#45;&gt;torch -->
<g id="edge24" class="edge">
<title>alphapose_models_builder&#45;&gt;torch</title><style>.edge>path:hover{stroke-width:8}</style>
<path fill="none" stroke="#000000" d="M241.2536,-525.5879C251.4356,-562.9578 258.3592,-571.4012 279.2536,-604.0143"/>
<path fill="none" stroke="#000000" d="M279.2536,-604.0143C286.9333,-616.0013 290.7628,-618.3977 303.2536,-625.2275 352.6936,-652.2607 416.9436,-666.838 456.6232,-673.812"/>
<polygon fill="#b03a3a" stroke="#000000" points="456.2009,-677.2902 466.6439,-675.503 457.3657,-670.3878 456.2009,-677.2902"/>
</g>
<!-- alphapose_utils_config -->
<g id="node5" class="node">
<title>alphapose_utils_config</title><style>.edge>path:hover{stroke-width:8}</style>
<ellipse fill="#b65353" stroke="#000000" cx="283.2536" cy="-251.4178" rx="45.011" ry="28.9828"/>
<text text-anchor="middle" x="283.2536" y="-259.9178" font-family="Helvetica,sans-Serif" font-size="10.00" fill="#ffffff">alphapose.</text>
<text text-anchor="middle" x="283.2536" y="-248.9178" font-family="Helvetica,sans-Serif" font-size="10.00" fill="#ffffff">utils.</text>
<text text-anchor="middle" x="283.2536" y="-237.9178" font-family="Helvetica,sans-Serif" font-size="10.00" fill="#ffffff">config</text>
</g>
<!-- alphapose_utils_detector -->
<g id="node6" class="node">
<title>alphapose_utils_detector</title><style>.edge>path:hover{stroke-width:8}</style>
<ellipse fill="#8f3d3d" stroke="#000000" cx="174.2536" cy="-251.4178" rx="45.011" ry="28.9828"/>
<text text-anchor="middle" x="174.2536" y="-259.9178" font-family="Helvetica,sans-Serif" font-size="10.00" fill="#ffffff">alphapose.</text>
<text text-anchor="middle" x="174.2536" y="-248.9178" font-family="Helvetica,sans-Serif" font-size="10.00" fill="#ffffff">utils.</text>
<text text-anchor="middle" x="174.2536" y="-237.9178" font-family="Helvetica,sans-Serif" font-size="10.00" fill="#ffffff">detector</text>
</g>
<!-- alphapose_utils_detector&#45;&gt;alphapose_models -->
<g id="edge2" class="edge">
<title>alphapose_utils_detector&#45;&gt;alphapose_models</title><style>.edge>path:hover{stroke-width:8}</style>
<path fill="none" stroke="#000000" d="M133.2536,-345.4005C127.3794,-373.5565 149.4821,-398.8828 170.8708,-416.1306"/>
<polygon fill="#8f3d3d" stroke="#000000" points="168.9058,-419.0341 178.9734,-422.3345 173.1613,-413.4762 168.9058,-419.0341"/>
</g>
<!-- alphapose_utils_detector&#45;&gt;alphapose_models_builder -->
<g id="edge4" class="edge">
<title>alphapose_utils_detector&#45;&gt;alphapose_models_builder</title><style>.edge>path:hover{stroke-width:8}</style>
<path fill="none" stroke="#000000" d="M158.723,-278.7912C149.295,-297.0258 138.1617,-321.8751 133.2536,-345.4005"/>
<path fill="none" stroke="#000000" d="M133.2536,-345.4005C128.1308,-369.9547 111.4487,-392.3569 95.3233,-409.1259"/>
<polygon fill="#8f3d3d" stroke="#000000" points="92.6132,-406.8853 87.9971,-416.4217 97.5526,-411.8454 92.6132,-406.8853"/>
</g>
<!-- numpy -->
<g id="node13" class="node">
<title>numpy</title><style>.edge>path:hover{stroke-width:8}</style>
<ellipse fill="#06f991" stroke="#000000" cx="565.2536" cy="-679.2275" rx="27.1572" ry="18"/>
<text text-anchor="middle" x="565.2536" y="-676.7275" font-family="Helvetica,sans-Serif" font-size="10.00" fill="#000000">numpy</text>
</g>
<!-- alphapose_utils_detector&#45;&gt;numpy -->
<g id="edge16" class="edge">
<title>alphapose_utils_detector&#45;&gt;numpy</title><style>.edge>path:hover{stroke-width:8}</style>
<path fill="none" stroke="#000000" d="M133.2536,-439.3833C141.2358,-452.5597 139.7181,-459.4195 152.2536,-468.3747 204.8808,-505.971 234.0168,-478.4108 293.2536,-504.3747 383.5452,-543.9501 396.1729,-572.1578 479.2536,-625.2275 498.3082,-637.3991 519.855,-650.9281 536.6147,-661.3996"/>
<polygon fill="#8f3d3d" stroke="#000000" points="535.0505,-664.5491 545.3869,-666.8746 538.7568,-658.6107 535.0505,-664.5491"/>
</g>
<!-- alphapose_utils_detector&#45;&gt;torch -->
<g id="edge25" class="edge">
<title>alphapose_utils_detector&#45;&gt;torch</title><style>.edge>path:hover{stroke-width:8}</style>
<path fill="none" stroke="#000000" d="M133.2536,-345.4005C124.7227,-386.2902 111.6108,-403.6575 133.2536,-439.3833"/>
<path fill="none" stroke="#000000" d="M133.2536,-439.3833C141.2358,-452.5597 140.1159,-458.8873 152.2536,-468.3747 201.0289,-506.4998 271.2057,-464.2055 279.2536,-525.5879"/>
<path fill="none" stroke="#000000" d="M279.2536,-525.5879C283.7848,-560.1483 260.4502,-574.6649 279.2536,-604.0143"/>
</g>
<!-- alphapose_utils_file_detector -->
<g id="node7" class="node">
<title>alphapose_utils_file_detector</title><style>.edge>path:hover{stroke-width:8}</style>
<ellipse fill="#9d4343" stroke="#000000" cx="356.2536" cy="-439.3833" rx="49.4949" ry="28.9828"/>
<text text-anchor="middle" x="356.2536" y="-447.8833" font-family="Helvetica,sans-Serif" font-size="10.00" fill="#ffffff">alphapose.</text>
<text text-anchor="middle" x="356.2536" y="-436.8833" font-family="Helvetica,sans-Serif" font-size="10.00" fill="#ffffff">utils.</text>
<text text-anchor="middle" x="356.2536" y="-425.8833" font-family="Helvetica,sans-Serif" font-size="10.00" fill="#ffffff">file_detector</text>
</g>
<!-- alphapose_utils_file_detector&#45;&gt;numpy -->
<g id="edge17" class="edge">
<title>alphapose_utils_file_detector&#45;&gt;numpy</title><style>.edge>path:hover{stroke-width:8}</style>
<path fill="none" stroke="#000000" d="M379.0181,-465.5074C419.953,-512.4834 505.3745,-610.5115 544.6685,-655.6045"/>
<polygon fill="#9d4343" stroke="#000000" points="542.2392,-658.1443 551.4476,-663.3841 547.5167,-653.5455 542.2392,-658.1443"/>
</g>
<!-- alphapose_utils_file_detector&#45;&gt;torch -->
<g id="edge26" class="edge">
<title>alphapose_utils_file_detector&#45;&gt;torch</title><style>.edge>path:hover{stroke-width:8}</style>
<path fill="none" stroke="#000000" d="M320.432,-459.6126C298.6399,-474.8936 275.6275,-497.9313 279.2536,-525.5879"/>
</g>
<!-- alphapose_utils_vis -->
<g id="node8" class="node">
<title>alphapose_utils_vis</title><style>.edge>path:hover{stroke-width:8}</style>
<ellipse fill="#b03a3a" stroke="#000000" cx="646.2536" cy="-345.4005" rx="45.011" ry="28.9828"/>
<text text-anchor="middle" x="646.2536" y="-353.9005" font-family="Helvetica,sans-Serif" font-size="10.00" fill="#ffffff">alphapose.</text>
<text text-anchor="middle" x="646.2536" y="-342.9005" font-family="Helvetica,sans-Serif" font-size="10.00" fill="#ffffff">utils.</text>
<text text-anchor="middle" x="646.2536" y="-331.9005" font-family="Helvetica,sans-Serif" font-size="10.00" fill="#ffffff">vis</text>
</g>
<!-- alphapose_utils_vis&#45;&gt;numpy -->
<g id="edge18" class="edge">
<title>alphapose_utils_vis&#45;&gt;numpy</title><style>.edge>path:hover{stroke-width:8}</style>
<path fill="none" stroke="#000000" d="M698.2536,-439.3833C708.7213,-479.9241 736.2536,-483.7175 736.2536,-525.5879"/>
<path fill="none" stroke="#000000" d="M736.2536,-525.5879C736.2536,-571.1387 742.547,-591.2102 712.2536,-625.2275 684.1905,-656.7403 636.1241,-669.891 602.6237,-675.3614"/>
<polygon fill="#b03a3a" stroke="#000000" points="601.686,-671.9616 592.3026,-676.8812 602.7058,-678.8869 601.686,-671.9616"/>
</g>
<!-- alphapose_utils_vis&#45;&gt;torch -->
<g id="edge27" class="edge">
<title>alphapose_utils_vis&#45;&gt;torch</title><style>.edge>path:hover{stroke-width:8}</style>
<path fill="none" stroke="#000000" d="M647.434,-374.5675C647.6411,-416.8151 642.2076,-495.5732 603.2536,-546.8011 582.3169,-574.3347 557.7291,-557.3975 534.2536,-582.8011 516.4043,-602.1163 505.6392,-630.369 499.6496,-651.3041"/>
<polygon fill="#b03a3a" stroke="#000000" points="496.2029,-650.6461 497.0115,-661.21 502.9671,-652.4475 496.2029,-650.6461"/>
</g>
<!-- trackers -->
<g id="node16" class="node">
<title>trackers</title><style>.edge>path:hover{stroke-width:8}</style>
<ellipse fill="#b83da6" stroke="#000000" cx="607.2536" cy="-604.0143" rx="30.7213" ry="18"/>
<text text-anchor="middle" x="607.2536" y="-601.5143" font-family="Helvetica,sans-Serif" font-size="10.00" fill="#ffffff">trackers</text>
</g>
<!-- alphapose_utils_vis&#45;&gt;trackers -->
<g id="edge34" class="edge">
<title>alphapose_utils_vis&#45;&gt;trackers</title><style>.edge>path:hover{stroke-width:8}</style>
<path fill="none" stroke="#000000" d="M665.6399,-371.8059C677.6338,-389.8384 691.9133,-414.8281 698.2536,-439.3833"/>
<path fill="none" stroke="#000000" d="M698.2536,-439.3833C708.7213,-479.9241 676.775,-487.1148 660.2536,-525.5879"/>
</g>
<!-- alphapose_utils_webcam_detector -->
<g id="node9" class="node">
<title>alphapose_utils_webcam_detector</title><style>.edge>path:hover{stroke-width:8}</style>
<ellipse fill="#9d4343" stroke="#000000" cx="490.2536" cy="-439.3833" rx="66.4361" ry="28.9828"/>
<text text-anchor="middle" x="490.2536" y="-447.8833" font-family="Helvetica,sans-Serif" font-size="10.00" fill="#ffffff">alphapose.</text>
<text text-anchor="middle" x="490.2536" y="-436.8833" font-family="Helvetica,sans-Serif" font-size="10.00" fill="#ffffff">utils.</text>
<text text-anchor="middle" x="490.2536" y="-425.8833" font-family="Helvetica,sans-Serif" font-size="10.00" fill="#ffffff">webcam_detector</text>
</g>
<!-- alphapose_utils_webcam_detector&#45;&gt;numpy -->
<g id="edge19" class="edge">
<title>alphapose_utils_webcam_detector&#45;&gt;numpy</title><style>.edge>path:hover{stroke-width:8}</style>
<path fill="none" stroke="#000000" d="M485.56,-468.3834C483.2251,-490.7037 482.799,-521.8514 493.2536,-546.8011 506.8851,-579.3326 536.7721,-570.6632 548.2536,-604.0143"/>
<path fill="none" stroke="#000000" d="M548.2536,-604.0143C552.8452,-619.3433 556.8552,-636.755 559.8257,-650.9625"/>
<polygon fill="#9d4343" stroke="#000000" points="556.4672,-652.0114 561.8871,-661.115 563.3272,-650.6185 556.4672,-652.0114"/>
</g>
<!-- alphapose_utils_webcam_detector&#45;&gt;torch -->
<g id="edge28" class="edge">
<title>alphapose_utils_webcam_detector&#45;&gt;torch</title><style>.edge>path:hover{stroke-width:8}</style>
<path fill="none" stroke="#000000" d="M446.6001,-461.2478C378.5637,-496.7941 257.173,-566.8712 279.2536,-604.0143"/>
</g>
<!-- alphapose_utils_writer -->
<g id="node10" class="node">
<title>alphapose_utils_writer</title><style>.edge>path:hover{stroke-width:8}</style>
<ellipse fill="#964040" stroke="#000000" cx="701.2536" cy="-251.4178" rx="45.011" ry="28.9828"/>
<text text-anchor="middle" x="701.2536" y="-259.9178" font-family="Helvetica,sans-Serif" font-size="10.00" fill="#ffffff">alphapose.</text>
<text text-anchor="middle" x="701.2536" y="-248.9178" font-family="Helvetica,sans-Serif" font-size="10.00" fill="#ffffff">utils.</text>
<text text-anchor="middle" x="701.2536" y="-237.9178" font-family="Helvetica,sans-Serif" font-size="10.00" fill="#ffffff">writer</text>
</g>
<!-- alphapose_utils_writer&#45;&gt;alphapose_utils_vis -->
<g id="edge11" class="edge">
<title>alphapose_utils_writer&#45;&gt;alphapose_utils_vis</title><style>.edge>path:hover{stroke-width:8}</style>
<path fill="none" stroke="#000000" d="M685.3453,-278.6015C679.7506,-288.1615 673.3725,-299.0603 667.4143,-309.2415"/>
<polygon fill="#964040" stroke="#000000" points="664.3467,-307.5538 662.3166,-317.9523 670.3883,-311.0894 664.3467,-307.5538"/>
</g>
<!-- alphapose_utils_writer&#45;&gt;numpy -->
<g id="edge20" class="edge">
<title>alphapose_utils_writer&#45;&gt;numpy</title><style>.edge>path:hover{stroke-width:8}</style>
<path fill="none" stroke="#000000" d="M736.2536,-439.3833C732.1059,-477.4713 739.3968,-487.4039 736.2536,-525.5879"/>
</g>
<!-- alphapose_utils_writer&#45;&gt;torch -->
<g id="edge29" class="edge">
<title>alphapose_utils_writer&#45;&gt;torch</title><style>.edge>path:hover{stroke-width:8}</style>
<path fill="none" stroke="#000000" d="M711.8657,-279.8784C724.3009,-316.5253 742.4702,-382.2955 736.2536,-439.3833"/>
<path fill="none" stroke="#000000" d="M736.2536,-439.3833C733.2331,-485.0738 681.9748,-595.3749 647.2536,-625.2275 605.6771,-660.9741 580.1754,-640.8957 529.2536,-661.2275 527.4527,-661.9465 525.6193,-662.7212 523.7815,-663.5309"/>
<polygon fill="#964040" stroke="#000000" points="522.2669,-660.3753 514.6868,-667.7774 525.2285,-666.718 522.2669,-660.3753"/>
</g>
<!-- demo_inference -->
<g id="node11" class="node">
<title>demo_inference</title><style>.edge>path:hover{stroke-width:8}</style>
<ellipse fill="#6b622e" stroke="#000000" cx="600.2536" cy="-18" rx="50.7503" ry="18"/>
<text text-anchor="middle" x="600.2536" y="-15.5" font-family="Helvetica,sans-Serif" font-size="10.00" fill="#ffffff">demo_inference</text>
</g>
<!-- demo_inference&#45;&gt;alphapose -->
<g id="edge1" class="edge">
<title>demo_inference&#45;&gt;alphapose</title><style>.edge>path:hover{stroke-width:8}</style>
<path fill="none" stroke="#000000" d="M551.4347,-23.1183C486.3467,-30.5862 367.8873,-46.4322 269.2536,-72 265.3464,-73.0128 261.3143,-74.2052 257.3142,-75.4861"/>
<polygon fill="#6b622e" stroke="#000000" points="255.875,-72.2782 247.5261,-78.8009 258.1204,-78.9083 255.875,-72.2782"/>
</g>
<!-- demo_inference&#45;&gt;alphapose_models -->
<g id="edge3" class="edge">
<title>demo_inference&#45;&gt;alphapose_models</title><style>.edge>path:hover{stroke-width:8}</style>
<path fill="none" stroke="#000000" d="M283.2536,-165.2132C272.8188,-198.5854 321.8906,-191.0167 337.2536,-222.4264 361.5526,-272.1059 348.5431,-290.637 356.2536,-345.4005"/>
<path fill="none" stroke="#000000" d="M356.2536,-345.4005C358.8285,-358.226 291.6214,-395.5666 246.3194,-419.1378"/>
<polygon fill="#6b622e" stroke="#000000" points="244.5744,-416.0998 237.2982,-423.801 247.7888,-422.3182 244.5744,-416.0998"/>
</g>
<!-- demo_inference&#45;&gt;alphapose_models_builder -->
<g id="edge5" class="edge">
<title>demo_inference&#45;&gt;alphapose_models_builder</title><style>.edge>path:hover{stroke-width:8}</style>
<path fill="none" stroke="#000000" d="M60.2536,-345.4005C55.0364,-362.8798 54.376,-383.0162 55.2874,-400.1554"/>
<polygon fill="#6b622e" stroke="#000000" points="51.8154,-400.6691 56.0313,-410.389 58.797,-400.1616 51.8154,-400.6691"/>
</g>
<!-- demo_inference&#45;&gt;alphapose_utils -->
<g id="edge7" class="edge">
<title>demo_inference&#45;&gt;alphapose_utils</title><style>.edge>path:hover{stroke-width:8}</style>
<path fill="none" stroke="#000000" d="M559.8218,-28.9704C478.573,-52.1178 301.6482,-108.5041 283.2536,-165.2132"/>
<path fill="none" stroke="#000000" d="M283.2536,-165.2132C228.6873,-219.2253 177.6084,-171.3852 120.2536,-222.4264 74.8241,-262.8549 77.6468,-287.1273 60.2536,-345.4005"/>
<path fill="none" stroke="#000000" d="M60.2536,-345.4005C46.1004,-380.1861 19.0125,-375.0712 6.2536,-410.3919 -2.5017,-434.6292 -1.2502,-443.7212 6.2536,-468.3747 18.9943,-510.234 49.436,-550.9098 71.612,-576.6216"/>
<polygon fill="#6b622e" stroke="#000000" points="69.2517,-579.237 78.4887,-584.4263 74.5038,-574.6094 69.2517,-579.237"/>
</g>
<!-- demo_inference&#45;&gt;alphapose_utils_config -->
<g id="edge8" class="edge">
<title>demo_inference&#45;&gt;alphapose_utils_config</title><style>.edge>path:hover{stroke-width:8}</style>
<path fill="none" stroke="#000000" d="M283.2536,-165.2132C278.5723,-180.1847 277.7243,-197.3471 278.3554,-212.3968"/>
<polygon fill="#6b622e" stroke="#000000" points="274.8656,-212.6704 278.9997,-222.4254 281.8512,-212.2215 274.8656,-212.6704"/>
</g>
<!-- demo_inference&#45;&gt;alphapose_utils_detector -->
<g id="edge9" class="edge">
<title>demo_inference&#45;&gt;alphapose_utils_detector</title><style>.edge>path:hover{stroke-width:8}</style>
<path fill="none" stroke="#000000" d="M283.2536,-165.2132C278.0825,-181.7513 244.398,-206.8702 215.8256,-225.7339"/>
<polygon fill="#6b622e" stroke="#000000" points="213.6339,-222.9842 207.1597,-231.3709 217.4508,-228.852 213.6339,-222.9842"/>
</g>
<!-- demo_inference&#45;&gt;alphapose_utils_file_detector -->
<g id="edge10" class="edge">
<title>demo_inference&#45;&gt;alphapose_utils_file_detector</title><style>.edge>path:hover{stroke-width:8}</style>
<path fill="none" stroke="#000000" d="M356.2536,-345.4005C358.7591,-363.1961 359.1087,-383.0756 358.6937,-399.9518"/>
<polygon fill="#6b622e" stroke="#000000" points="355.1931,-399.9122 358.3489,-410.0261 362.189,-400.1517 355.1931,-399.9122"/>
</g>
<!-- demo_inference&#45;&gt;alphapose_utils_vis -->
<g id="edge12" class="edge">
<title>demo_inference&#45;&gt;alphapose_utils_vis</title><style>.edge>path:hover{stroke-width:8}</style>
<path fill="none" stroke="#000000" d="M628.2536,-251.4178C626.4648,-269.7661 629.609,-289.8666 633.7456,-306.7526"/>
<polygon fill="#6b622e" stroke="#000000" points="630.4659,-308.0394 636.4143,-316.8068 637.2316,-306.2435 630.4659,-308.0394"/>
</g>
<!-- demo_inference&#45;&gt;alphapose_utils_webcam_detector -->
<g id="edge13" class="edge">
<title>demo_inference&#45;&gt;alphapose_utils_webcam_detector</title><style>.edge>path:hover{stroke-width:8}</style>
<path fill="none" stroke="#000000" d="M356.2536,-345.4005C359.1023,-365.6334 401.0385,-392.7933 437.247,-412.7123"/>
<polygon fill="#6b622e" stroke="#000000" points="435.8411,-415.9311 446.3018,-417.6118 439.1724,-409.7746 435.8411,-415.9311"/>
</g>
<!-- demo_inference&#45;&gt;alphapose_utils_writer -->
<g id="edge14" class="edge">
<title>demo_inference&#45;&gt;alphapose_utils_writer</title><style>.edge>path:hover{stroke-width:8}</style>
<path fill="none" stroke="#000000" d="M644.365,-26.9763C682.7334,-36.7585 737.7567,-55.7959 774.2536,-90"/>
<path fill="none" stroke="#000000" d="M774.2536,-90C798.6445,-112.8587 780.9033,-132.4532 774.2536,-165.2132"/>
<path fill="none" stroke="#000000" d="M774.2536,-165.2132C769.7276,-187.5107 754.3112,-207.3028 738.8048,-222.281"/>
<polygon fill="#6b622e" stroke="#000000" points="736.2292,-219.8944 731.2327,-229.2371 740.9648,-225.0495 736.2292,-219.8944"/>
</g>
<!-- natsort -->
<g id="node12" class="node">
<title>natsort</title><style>.edge>path:hover{stroke-width:8}</style>
<ellipse fill="#64c040" stroke="#000000" cx="572.2536" cy="-90" rx="27.8353" ry="18"/>
<text text-anchor="middle" x="572.2536" y="-87.5" font-family="Helvetica,sans-Serif" font-size="10.00" fill="#000000">natsort</text>
</g>
<!-- demo_inference&#45;&gt;natsort -->
<g id="edge15" class="edge">
<title>demo_inference&#45;&gt;natsort</title><style>.edge>path:hover{stroke-width:8}</style>
<path fill="none" stroke="#000000" d="M593.188,-36.1686C590.0805,-44.1594 586.3632,-53.7181 582.9291,-62.5486"/>
<polygon fill="#6b622e" stroke="#000000" points="579.5824,-61.498 579.2199,-72.0866 586.1064,-64.0351 579.5824,-61.498"/>
</g>
<!-- demo_inference&#45;&gt;numpy -->
<g id="edge21" class="edge">
<title>demo_inference&#45;&gt;numpy</title><style>.edge>path:hover{stroke-width:8}</style>
<path fill="none" stroke="#000000" d="M774.2536,-165.2132C747.3667,-297.6719 771.7192,-334.9301 750.2536,-468.3747 746.096,-494.2207 738.4013,-499.4978 736.2536,-525.5879"/>
</g>
<!-- demo_inference&#45;&gt;torch -->
<g id="edge30" class="edge">
<title>demo_inference&#45;&gt;torch</title><style>.edge>path:hover{stroke-width:8}</style>
<path fill="none" stroke="#000000" d="M356.2536,-345.4005C363.3471,-383.46 314.955,-375.4648 298.2536,-410.3919 275.8684,-457.2051 272.508,-474.1383 279.2536,-525.5879"/>
</g>
<!-- tqdm -->
<g id="node15" class="node">
<title>tqdm</title><style>.edge>path:hover{stroke-width:8}</style>
<ellipse fill="#7053b6" stroke="#000000" cx="683.2536" cy="-90" rx="27" ry="18"/>
<text text-anchor="middle" x="683.2536" y="-87.5" font-family="Helvetica,sans-Serif" font-size="10.00" fill="#ffffff">tqdm</text>
</g>
<!-- demo_inference&#45;&gt;tqdm -->
<g id="edge33" class="edge">
<title>demo_inference&#45;&gt;tqdm</title><style>.edge>path:hover{stroke-width:8}</style>
<path fill="none" stroke="#000000" d="M619.5041,-34.6992C631.2106,-44.8543 646.2707,-57.9185 658.8135,-68.799"/>
<polygon fill="#6b622e" stroke="#000000" points="656.7845,-71.6722 666.6319,-75.5812 661.3714,-66.3845 656.7845,-71.6722"/>
</g>
<!-- demo_inference&#45;&gt;trackers -->
<g id="edge35" class="edge">
<title>demo_inference&#45;&gt;trackers</title><style>.edge>path:hover{stroke-width:8}</style>
<path fill="none" stroke="#000000" d="M605.1215,-36.1295C615.0568,-75.3405 636.0946,-170.9865 628.2536,-251.4178"/>
<path fill="none" stroke="#000000" d="M628.2536,-251.4178C625.2404,-284.3004 600.5164,-284.4393 592.2536,-316.4092 585.805,-341.3594 586.8482,-349.1951 592.2536,-374.3919 607.7085,-446.4345 689.3272,-457.8848 660.2536,-525.5879"/>
<path fill="none" stroke="#000000" d="M660.2536,-525.5879C653.5341,-545.6477 640.1702,-565.3648 628.5436,-580.0112"/>
<polygon fill="#6b622e" stroke="#000000" points="625.6113,-578.0666 621.9621,-588.0132 631.0176,-582.5132 625.6113,-578.0666"/>
</g>
<!-- trackers_tracker_api -->
<g id="node17" class="node">
<title>trackers_tracker_api</title><style>.edge>path:hover{stroke-width:8}</style>
<ellipse fill="#ac499d" stroke="#000000" cx="548.2536" cy="-525.5879" rx="45.9239" ry="21.4286"/>
<text text-anchor="middle" x="548.2536" y="-528.5879" font-family="Helvetica,sans-Serif" font-size="10.00" fill="#ffffff">trackers.</text>
<text text-anchor="middle" x="548.2536" y="-517.5879" font-family="Helvetica,sans-Serif" font-size="10.00" fill="#ffffff">tracker_api</text>
</g>
<!-- demo_inference&#45;&gt;trackers_tracker_api -->
<g id="edge36" class="edge">
<title>demo_inference&#45;&gt;trackers_tracker_api</title><style>.edge>path:hover{stroke-width:8}</style>
<path fill="none" stroke="#000000" d="M356.2536,-345.4005C375.4013,-440.7738 507.5784,-332.0576 565.2536,-410.3919 583.242,-434.8237 574.2967,-470.2002 563.8148,-495.2921"/>
<polygon fill="#6b622e" stroke="#000000" points="560.4993,-494.133 559.6187,-504.6912 566.8913,-496.9866 560.4993,-494.133"/>
</g>
<!-- trackers_tracker_cfg -->
<g id="node18" class="node">
<title>trackers_tracker_cfg</title><style>.edge>path:hover{stroke-width:8}</style>
<ellipse fill="#b653a8" stroke="#000000" cx="848.2536" cy="-165.2132" rx="45.9239" ry="21.4286"/>
<text text-anchor="middle" x="848.2536" y="-168.2132" font-family="Helvetica,sans-Serif" font-size="10.00" fill="#ffffff">trackers.</text>
<text text-anchor="middle" x="848.2536" y="-157.2132" font-family="Helvetica,sans-Serif" font-size="10.00" fill="#ffffff">tracker_cfg</text>
</g>
<!-- demo_inference&#45;&gt;trackers_tracker_cfg -->
<g id="edge37" class="edge">
<title>demo_inference&#45;&gt;trackers_tracker_cfg</title><style>.edge>path:hover{stroke-width:8}</style>
<path fill="none" stroke="#000000" d="M774.2536,-90C790.8712,-105.5738 808.8018,-123.7605 822.8505,-138.3489"/>
<polygon fill="#6b622e" stroke="#000000" points="820.3696,-140.8187 829.8157,-145.6168 825.4235,-135.9753 820.3696,-140.8187"/>
</g>
<!-- trackers&#45;&gt;numpy -->
<g id="edge22" class="edge">
<title>trackers&#45;&gt;numpy</title><style>.edge>path:hover{stroke-width:8}</style>
<path fill="none" stroke="#000000" d="M597.5124,-621.4588C592.2269,-630.9238 585.5906,-642.8081 579.7134,-653.3329"/>
<polygon fill="#b83da6" stroke="#000000" points="576.6168,-651.6995 574.7971,-662.1369 582.7285,-655.1124 576.6168,-651.6995"/>
</g>
<!-- trackers&#45;&gt;torch -->
<g id="edge31" class="edge">
<title>trackers&#45;&gt;torch</title><style>.edge>path:hover{stroke-width:8}</style>
<path fill="none" stroke="#000000" d="M586.8726,-617.4609C568.5741,-629.5336 541.5441,-647.3671 521.2262,-660.7722"/>
<polygon fill="#b83da6" stroke="#000000" points="519.1166,-657.9708 512.6971,-666.3993 522.9716,-663.8137 519.1166,-657.9708"/>
</g>
<!-- trackers_tracker_api&#45;&gt;numpy -->
<g id="edge23" class="edge">
<title>trackers_tracker_api&#45;&gt;numpy</title><style>.edge>path:hover{stroke-width:8}</style>
<path fill="none" stroke="#000000" d="M544.5888,-546.8416C542.6691,-562.9782 541.8714,-585.4755 548.2536,-604.0143"/>
</g>
<!-- trackers_tracker_api&#45;&gt;torch -->
<g id="edge32" class="edge">
<title>trackers_tracker_api&#45;&gt;torch</title><style>.edge>path:hover{stroke-width:8}</style>
<path fill="none" stroke="#000000" d="M525.204,-543.978C514.2941,-554.1401 502.3441,-567.7451 496.2536,-582.8011 487.4689,-604.517 487.3877,-631.2865 489.1218,-651.1057"/>
<polygon fill="#ac499d" stroke="#000000" points="485.6419,-651.4808 490.1928,-661.0484 492.6016,-650.731 485.6419,-651.4808"/>
</g>
</g>
</svg>
